<svg xmlns="http://www.w3.org/2000/svg" xmlns:xlink="http://www.w3.org/1999/xlink" version="1.1" id="Layer_1" x="0px" y="0px" width="90px" height="90px" viewBox="0 0 90 90" enable-background="new 0 0 90 90" xml:space="preserve">
<g>
	<path d="M63.006,29.382c0.021-0.005,0.044-0.011,0.044-0.011C52.457,26.52,45.482,14.114,45.482,14.114   c-0.46,6.504,0.78,7.085,0.78,7.085c-7.8-3.89-11.572-13.407-11.572-13.407c-2.819,7.351,3.021,13.813,3.021,13.813   c-10.163-2.697-9.861-9.479-9.861-9.479c-4.322,6.656,1.886,13.548,4.268,15.231c0.378,0.267,0.779,0.511,1.19,0.745   C19.275,30.066,9.18,36.415,9.18,52.098c0,19.782,16.037,24.74,35.82,24.74c19.782,0,35.818-4.958,35.818-24.74   C80.818,38.888,73.648,32.309,63.006,29.382z M16.567,45.637c0-1.43,1.156-2.587,2.584-2.587c1.428,0,2.585,1.157,2.585,2.587   c0,1.426-1.157,2.584-2.585,2.584C17.723,48.221,16.567,47.062,16.567,45.637z M68.782,59.88l-0.949,2.806   c-0.778,2.299-3.298,4.821-5.597,5.604c0,0-4.916,1.67-18.899,1.67c-16.062,0-18.211,0.355-21.047-4.201   c-1.37-2.199-1.868-5.689-1.868-5.689c-0.344-2.404,1.362-4.371,3.791-4.371h41.573C68.214,55.695,69.564,57.579,68.782,59.88z    M70.848,48.221c-1.427,0-2.586-1.158-2.586-2.584c0-1.43,1.159-2.587,2.586-2.587c1.426,0,2.582,1.157,2.582,2.587   C73.43,47.062,72.273,48.221,70.848,48.221z"/>
	<circle cx="19.833" cy="46.167" r="1.167"/>
	<circle cx="70.5" cy="46.167" r="1.167"/>
</g>
</svg>